<svg width="96" height="28.5" viewBox="0 0 163 39" fill="none" xmlns="http://www.w3.org/2000/svg">
<path d="M28.0561 34.6801C34.3789 34.6801 39.5046 29.7145 39.5046 23.5894C39.5046 17.4642 34.3789 12.4988 28.0561 12.4988C21.7333 12.4988 16.6077 17.4642 16.6077 23.5894C16.6077 29.7145 21.7333 34.6801 28.0561 34.6801Z" fill="black"/>
<path d="M43.9116 7.86122C43.9231 7.80779 43.9446 6.69146 43.9446 6.69146C43.9446 6.24313 43.5702 5.87943 43.1068 5.87943H39.39C38.9881 5.87943 38.666 6.16147 38.587 6.53112L37.2935 2.31442C37.0975 1.89282 36.1368 1.20847 35.5604 1.05408C33.8004 0.582757 30.9268 0.348206 28.0554 0.348206C25.1825 0.348206 22.3089 0.582757 20.5481 1.05408C19.9724 1.20847 19.011 1.89282 18.8158 2.31442L17.2018 7.57547H15.7761V6.63058C15.7765 6.22853 15.6116 5.84278 15.3176 5.55814C15.0236 5.2735 14.6245 5.11328 14.2083 5.11269H7.25048C7.04437 5.11289 6.84029 5.15231 6.64995 5.22872C6.45961 5.30511 6.28674 5.41701 6.1412 5.55796C5.99567 5.69895 5.88032 5.86624 5.80177 6.05027C5.7232 6.23431 5.68299 6.4315 5.68338 6.63058V7.57547H4.14857C1.98432 7.57547 0.228928 9.27595 0.228928 11.372V32.4445C0.228928 34.5399 1.98355 36.2404 4.14857 36.2404H19.0732C21.7119 38.0053 24.8463 38.9493 28.0561 38.9449C31.391 38.9449 34.4843 37.9452 37.0384 36.2404H42.4229C44.5872 36.2404 46.3425 34.5399 46.3425 32.4445V11.372C46.3427 10.6202 46.1117 9.88515 45.679 9.26012C45.2462 8.63512 44.6311 8.14824 43.9116 7.86122ZM28.0561 37.5488C20.1092 37.5488 13.6449 31.2874 13.6449 23.5894C13.6449 15.8916 20.1092 9.62924 28.0561 9.62924C36.0015 9.62924 42.4658 15.8916 42.4658 23.5894C42.4658 31.2874 36.0015 37.5488 28.0561 37.5488Z" fill="black"/>
<path d="M60.8673 19.2801C62.1127 19.2801 63.0616 18.9643 63.7139 18.3329C64.396 17.6683 64.7369 16.6713 64.7369 15.342C64.7369 14.0791 64.3811 13.1153 63.6694 12.4507C62.9873 11.7528 61.9792 11.4038 60.6449 11.4038C60.1705 11.4038 59.7702 11.4205 59.444 11.4537C59.1475 11.4537 58.8362 11.4869 58.5099 11.5534V19.2801H60.8673ZM58.5544 35.2818C58.2282 35.3815 57.7093 35.4812 56.9977 35.5809C56.3156 35.6806 55.6338 35.7304 54.9517 35.7304C54.2696 35.7304 53.6618 35.6639 53.1281 35.5311C52.6239 35.4314 52.194 35.232 51.8382 34.9329C51.4824 34.6338 51.2155 34.2182 51.0376 33.6866C50.8597 33.155 50.7707 32.4571 50.7707 31.5929V8.11375C50.7707 7.41586 50.9337 6.88414 51.26 6.51857C51.6158 6.11977 52.0901 5.80404 52.6833 5.57142C53.6914 5.17263 54.8331 4.89015 56.1081 4.72398C57.4129 4.52458 58.7174 4.42488 60.0222 4.42488C64.1142 4.42488 67.2426 5.40525 69.4071 7.36601C71.5716 9.32677 72.654 11.9854 72.654 15.342C72.654 16.9704 72.4167 18.4493 71.9424 19.7786C71.4976 21.0747 70.8155 22.2046 69.8964 23.1683C69.0068 24.0989 67.8653 24.83 66.4716 25.3617C65.1076 25.8602 63.5211 26.1095 61.7124 26.1095H58.5544V35.2818Z" fill="black"/>
<path d="M75.4245 4.52459C75.4245 3.26172 75.7953 2.19827 76.5365 1.3342C77.3075 0.470146 78.3156 0.0381165 79.561 0.0381165C80.8064 0.0381165 81.7998 0.470146 82.5411 1.3342C83.3121 2.19827 83.6975 3.26172 83.6975 4.52459C83.6975 5.78745 83.3121 6.85089 82.5411 7.71496C81.7998 8.57903 80.8064 9.01105 79.561 9.01105C78.3156 9.01105 77.3075 8.57903 76.5365 7.71496C75.7953 6.85089 75.4245 5.78745 75.4245 4.52459ZM83.3417 35.4314C83.0154 35.4979 82.5261 35.5809 81.8739 35.6806C81.2512 35.8134 80.6136 35.88 79.9613 35.88C79.309 35.88 78.7159 35.8302 78.1822 35.7305C77.678 35.6308 77.2481 35.4314 76.8923 35.1323C76.5365 34.8332 76.2547 34.4344 76.0472 33.9359C75.8693 33.4042 75.7803 32.7228 75.7803 31.892V11.6032C76.1066 11.5368 76.581 11.4537 77.2037 11.354C77.8559 11.2211 78.5084 11.1546 79.1607 11.1546C79.813 11.1546 80.3912 11.2044 80.8954 11.3041C81.4291 11.4038 81.8739 11.6032 82.2297 11.9023C82.5855 12.2014 82.8524 12.6169 83.0303 13.1486C83.2378 13.6471 83.3417 14.3117 83.3417 15.1426V35.4314Z" fill="black"/>
<path d="M101.855 20.1275C101.855 19.0973 101.588 18.3496 101.054 17.8843C100.55 17.3858 99.8533 17.1365 98.9638 17.1365C98.3706 17.1365 97.7775 17.2196 97.1846 17.3858C96.6211 17.552 96.1318 17.8012 95.7168 18.1335V35.4314C95.4202 35.5311 94.9458 35.6308 94.2935 35.7305C93.6708 35.8302 93.0183 35.88 92.3365 35.88C91.684 35.88 91.0911 35.8302 90.5574 35.7305C90.0532 35.6308 89.6233 35.4314 89.2675 35.1323C88.9117 34.8332 88.6299 34.4344 88.4224 33.9359C88.2445 33.4042 88.1555 32.7228 88.1555 31.892V16.9371C88.1555 16.0399 88.3185 15.3087 88.6448 14.7438C89.0006 14.1788 89.475 13.6637 90.0681 13.1984C91.0762 12.4008 92.3365 11.7528 93.8488 11.2543C95.3906 10.7558 97.0957 10.5065 98.9638 10.5065C102.314 10.5065 104.894 11.3374 106.703 12.999C108.512 14.6274 109.416 16.9039 109.416 19.8284V35.4314C109.119 35.5311 108.645 35.6308 107.993 35.7305C107.37 35.8302 106.718 35.88 106.036 35.88C105.383 35.88 104.79 35.8302 104.257 35.7305C103.753 35.6308 103.323 35.4314 102.967 35.1323C102.611 34.8332 102.329 34.4344 102.122 33.9359C101.944 33.4042 101.855 32.7228 101.855 31.892V20.1275Z" fill="black"/>
<path d="M131.353 35.2818C131.027 35.3815 130.508 35.4812 129.796 35.5809C129.114 35.6806 128.432 35.7305 127.75 35.7305C127.068 35.7305 126.46 35.6639 125.927 35.5311C125.423 35.4314 124.993 35.232 124.637 34.9329C124.281 34.6338 124.014 34.2183 123.836 33.6866C123.658 33.155 123.569 32.4571 123.569 31.5929V5.27233C123.895 5.20586 124.414 5.12278 125.126 5.02308C125.838 4.89016 126.52 4.82368 127.172 4.82368C127.854 4.82368 128.447 4.89016 128.951 5.02308C129.485 5.12278 129.93 5.32218 130.285 5.62128C130.641 5.92038 130.908 6.3358 131.086 6.86752C131.264 7.39924 131.353 8.09713 131.353 8.9612V35.2818Z" fill="black"/>
<path d="M144.104 27.1563C144.104 28.0204 144.342 28.6352 144.816 29.0008C145.32 29.3664 146.017 29.5491 146.906 29.5491C147.351 29.5491 147.811 29.516 148.285 29.4494C148.76 29.3497 149.175 29.2334 149.531 29.1004C149.798 29.4661 150.02 29.8813 150.198 30.3467C150.405 30.7786 150.509 31.3105 150.509 31.9419C150.509 33.2048 150.079 34.235 149.219 35.0326C148.389 35.8301 146.906 36.2289 144.771 36.2289C142.162 36.2289 140.146 35.5642 138.722 34.235C137.329 32.9057 136.632 30.7455 136.632 27.7545V6.41888C136.958 6.31918 137.418 6.21948 138.011 6.11978C138.633 5.98686 139.286 5.92038 139.968 5.92038C141.273 5.92038 142.281 6.18625 142.992 6.71797C143.734 7.21647 144.104 8.29653 144.104 9.9582V13.1486H149.931C150.109 13.5141 150.272 13.9794 150.42 14.5444C150.598 15.0761 150.687 15.6743 150.687 16.3389C150.687 17.5021 150.45 18.3496 149.975 18.8813C149.531 19.3798 148.923 19.629 148.152 19.629H144.104V27.1563Z" fill="black"/>
<path d="M162.58 6.56842C162.58 7.33279 162.565 8.44608 162.536 9.90835C162.506 11.3374 162.447 12.8993 162.358 14.5942C162.269 16.2559 162.15 17.9341 162.002 19.629C161.854 21.2907 161.676 22.7363 161.468 23.9659C161.35 24.0656 161.172 24.1653 160.934 24.265C160.697 24.3647 160.445 24.4478 160.178 24.5143C159.911 24.5808 159.645 24.6306 159.378 24.6638C159.111 24.6971 158.874 24.7137 158.666 24.7137C157.806 24.7137 157.08 24.5641 156.487 24.265C155.923 23.9659 155.567 23.3844 155.419 22.5203C155.271 21.7559 155.138 20.5928 155.019 19.0308C154.93 17.4689 154.841 15.774 154.752 13.9462C154.663 12.1184 154.589 10.3071 154.529 8.51256C154.5 6.71797 154.485 5.18926 154.485 3.92639C155.078 3.56082 155.745 3.27834 156.487 3.07895C157.258 2.84631 158.014 2.73 158.755 2.73C159.971 2.73 160.905 3.04572 161.557 3.67714C162.239 4.30856 162.58 5.27233 162.58 6.56842ZM154.396 31.6926C154.396 30.33 154.767 29.2168 155.508 28.3527C156.279 27.4554 157.332 27.0068 158.666 27.0068C160 27.0068 161.038 27.4554 161.779 28.3527C162.551 29.2168 162.936 30.33 162.936 31.6926C162.936 33.0553 162.551 34.1851 161.779 35.0824C161.038 35.9466 160 36.3785 158.666 36.3785C157.332 36.3785 156.279 35.9466 155.508 35.0824C154.767 34.1851 154.396 33.0553 154.396 31.6926Z" fill="black"/>
</svg>
