<svg width="190" height="30" viewBox="0 0 190 48" fill="none" xmlns="http://www.w3.org/2000/svg">
<path d="M32.495 42.7384C39.8784 42.7384 45.8639 36.6123 45.8639 29.0557C45.8639 21.4989 39.8784 15.373 32.495 15.373C25.1116 15.373 19.1262 21.4989 19.1262 29.0557C19.1262 36.6123 25.1116 42.7384 32.495 42.7384Z" fill="white"/>
<path d="M51.0102 9.65151C51.0236 9.5856 51.0487 8.20835 51.0487 8.20835C51.0487 7.65524 50.6115 7.20654 50.0704 7.20654H45.7301C45.2608 7.20654 44.8847 7.55449 44.7924 8.01053L43.2819 2.80832C43.0531 2.28819 41.9312 1.44389 41.2581 1.25342C39.2028 0.671933 35.8473 0.382563 32.4941 0.382563C29.1394 0.382563 25.7837 0.671933 23.7276 1.25342C23.0554 1.44389 21.9326 2.28819 21.7047 2.80832L19.8199 9.29897H18.1551V8.13325C18.1556 7.63723 17.963 7.16132 17.6197 6.81016C17.2763 6.45899 16.8104 6.26132 16.3243 6.26059H8.19938C7.95868 6.26085 7.72038 6.30947 7.49811 6.40375C7.27584 6.49799 7.07398 6.63604 6.90401 6.80994C6.73408 6.98387 6.59937 7.19026 6.50765 7.41731C6.41591 7.64435 6.36895 7.88764 6.3694 8.13325V9.29897H4.57713C2.04984 9.29897 0 11.3969 0 13.9829V39.9803C0 42.5655 2.04895 44.6634 4.57713 44.6634H22.0053C25.0866 46.8409 28.7468 48.0054 32.495 48C36.3893 48 40.0015 46.7667 42.984 44.6634H49.2717C51.799 44.6634 53.8488 42.5655 53.8488 39.9803V13.9829C53.8491 13.0553 53.5793 12.1485 53.074 11.3774C52.5687 10.6063 51.8504 10.0056 51.0102 9.65151ZM32.495 46.2776C23.2151 46.2776 15.6664 38.5528 15.6664 29.0557C15.6664 19.5587 23.2151 11.8327 32.495 11.8327C41.7732 11.8327 49.3218 19.5587 49.3218 29.0557C49.3218 38.5528 41.7732 46.2776 32.495 46.2776Z" fill="white"/>
<path d="M70.81 23.7392C72.2643 23.7392 73.3725 23.3496 74.1342 22.5706C74.9307 21.7506 75.3288 20.5206 75.3288 18.8806C75.3288 17.3226 74.9132 16.1336 74.0822 15.3136C73.2857 14.4526 72.1085 14.0221 70.5503 14.0221C69.9964 14.0221 69.529 14.0426 69.148 14.0836C68.8018 14.0836 68.4382 14.1246 68.0573 14.2066V23.7392H70.81ZM68.1092 43.4808C67.7282 43.6038 67.1224 43.7268 66.2913 43.8498C65.4948 43.9728 64.6986 44.0343 63.9021 44.0343C63.1056 44.0343 62.3959 43.9522 61.7726 43.7883C61.1839 43.6653 60.6819 43.4193 60.2664 43.0503C59.8509 42.6813 59.5392 42.1687 59.3315 41.5128C59.1237 40.8569 59.0198 39.9959 59.0198 38.9298V9.96306C59.0198 9.10206 59.2102 8.44606 59.5912 7.99505C60.0067 7.50305 60.5606 7.11353 61.2532 6.82654C62.4304 6.33454 63.7637 5.98605 65.2525 5.78104C66.7762 5.53503 68.2995 5.41203 69.8232 5.41203C74.6016 5.41203 78.2548 6.62153 80.7824 9.04056C83.31 11.4596 84.5739 14.7396 84.5739 18.8806C84.5739 20.8896 84.2968 22.7142 83.7429 24.3542C83.2235 25.9532 82.427 27.3472 81.3537 28.5362C80.3149 29.6842 78.9819 30.5862 77.3544 31.2422C75.7617 31.8572 73.909 32.1647 71.7969 32.1647H68.1092V43.4808Z" fill="white"/>
<path d="M87.8092 5.53504C87.8092 3.97702 88.2421 2.66502 89.1076 1.59901C90.008 0.533002 91.1852 0 92.6395 0C94.0938 0 95.2539 0.533002 96.1194 1.59901C97.0198 2.66502 97.4699 3.97702 97.4699 5.53504C97.4699 7.09306 97.0198 8.40505 96.1194 9.47107C95.2539 10.5371 94.0938 11.0701 92.6395 11.0701C91.1852 11.0701 90.008 10.5371 89.1076 9.47107C88.2421 8.40505 87.8092 7.09306 87.8092 5.53504ZM97.0544 43.6653C96.6734 43.7474 96.102 43.8498 95.3403 43.9728C94.6132 44.1367 93.8686 44.2188 93.107 44.2188C92.3453 44.2188 91.6527 44.1573 91.0294 44.0343C90.4406 43.9113 89.9387 43.6653 89.5232 43.2963C89.1076 42.9273 88.7786 42.4353 88.5363 41.8203C88.3285 41.1644 88.2247 40.3236 88.2247 39.2988V14.2681C88.6057 14.1861 89.1596 14.0836 89.8867 13.9606C90.6484 13.7966 91.4104 13.7146 92.1721 13.7146C92.9337 13.7146 93.6089 13.7761 94.1977 13.8991C94.821 14.0221 95.3404 14.2681 95.7559 14.6371C96.1714 15.0061 96.483 15.5186 96.6908 16.1746C96.9331 16.7896 97.0544 17.6096 97.0544 18.6346V43.6653Z" fill="white"/>
<path d="M118.673 24.7847C118.673 23.5137 118.361 22.5912 117.738 22.0172C117.149 21.4022 116.336 21.0946 115.297 21.0946C114.604 21.0946 113.912 21.1971 113.219 21.4022C112.561 21.6072 111.99 21.9147 111.505 22.3247V43.6653C111.159 43.7883 110.605 43.9113 109.843 44.0343C109.116 44.1573 108.354 44.2188 107.558 44.2188C106.796 44.2188 106.104 44.1573 105.48 44.0343C104.892 43.9113 104.39 43.6653 103.974 43.2963C103.559 42.9273 103.23 42.4353 102.987 41.8203C102.78 41.1644 102.676 40.3237 102.676 39.2988V20.8486C102.676 19.7416 102.866 18.8396 103.247 18.1426C103.663 17.4456 104.216 16.8101 104.909 16.2361C106.086 15.2521 107.558 14.4526 109.324 13.8376C111.124 13.2226 113.115 12.9151 115.297 12.9151C119.209 12.9151 122.222 13.9401 124.334 15.9901C126.446 17.9991 127.503 20.8077 127.503 24.4157V43.6653C127.156 43.7883 126.602 43.9113 125.841 44.0343C125.113 44.1573 124.351 44.2188 123.555 44.2188C122.793 44.2188 122.101 44.1573 121.478 44.0343C120.889 43.9113 120.387 43.6653 119.971 43.2963C119.556 42.9273 119.227 42.4353 118.985 41.8203C118.777 41.1644 118.673 40.3237 118.673 39.2988V24.7847Z" fill="white"/>
<path d="M153.119 43.4808C152.738 43.6038 152.132 43.7268 151.301 43.8498C150.505 43.9728 149.709 44.0343 148.912 44.0343C148.116 44.0343 147.406 43.9522 146.783 43.7883C146.194 43.6653 145.692 43.4193 145.276 43.0503C144.861 42.6813 144.549 42.1687 144.341 41.5128C144.134 40.8569 144.03 39.9959 144.03 38.9298V6.45755C144.411 6.37554 145.017 6.27305 145.848 6.15005C146.679 5.98606 147.475 5.90404 148.237 5.90404C149.033 5.90404 149.726 5.98606 150.314 6.15005C150.938 6.27305 151.457 6.51905 151.873 6.88805C152.288 7.25705 152.6 7.76957 152.808 8.42556C153.015 9.08155 153.119 9.94256 153.119 11.0086V43.4808Z" fill="white"/>
<path d="M168.01 33.4562C168.01 34.5222 168.287 35.2807 168.841 35.7317C169.429 36.1829 170.243 36.4082 171.282 36.4082C171.801 36.4082 172.338 36.3674 172.892 36.2852C173.446 36.1622 173.931 36.0187 174.346 35.8547C174.658 36.3059 174.917 36.8181 175.125 37.3922C175.367 37.9251 175.489 38.5814 175.489 39.3603C175.489 40.9184 174.987 42.1893 173.983 43.1733C173.013 44.1573 171.282 44.6493 168.789 44.6493C165.742 44.6493 163.387 43.8292 161.725 42.1893C160.097 40.5494 159.284 37.8843 159.284 34.1942V7.87206C159.665 7.74906 160.201 7.62606 160.894 7.50306C161.621 7.33907 162.383 7.25706 163.179 7.25706C164.703 7.25706 165.88 7.58507 166.711 8.24106C167.577 8.85607 168.01 10.1886 168.01 12.2386V16.1746H174.814C175.021 16.6256 175.212 17.1996 175.385 17.8966C175.593 18.5526 175.697 19.2906 175.697 20.1106C175.697 21.5457 175.419 22.5912 174.866 23.2472C174.346 23.8622 173.636 24.1697 172.736 24.1697H168.01V33.4562Z" fill="white"/>
<path d="M189.584 8.05656C189.584 8.99957 189.567 10.3731 189.533 12.1771C189.498 13.9401 189.429 15.8671 189.325 17.9581C189.221 20.0081 189.082 22.0786 188.909 24.1697C188.736 26.2197 188.529 28.0032 188.286 29.5202C188.148 29.6432 187.94 29.7662 187.663 29.8892C187.386 30.0122 187.091 30.1147 186.78 30.1967C186.468 30.2787 186.157 30.3402 185.845 30.3812C185.533 30.4222 185.256 30.4427 185.014 30.4427C184.01 30.4427 183.161 30.2582 182.469 29.8892C181.811 29.5202 181.396 28.8027 181.222 27.7367C181.049 26.7937 180.894 25.3587 180.755 23.4317C180.651 21.5046 180.547 19.4136 180.443 17.1586C180.339 14.9036 180.253 12.6691 180.183 10.4551C180.149 8.24106 180.132 6.35506 180.132 4.79703C180.824 4.34602 181.603 3.99753 182.469 3.75153C183.369 3.46452 184.252 3.32102 185.118 3.32102C186.537 3.32102 187.628 3.71054 188.39 4.48953C189.186 5.26853 189.584 6.45755 189.584 8.05656ZM180.028 39.0528C180.028 37.3716 180.461 35.9983 181.326 34.9322C182.227 33.8252 183.456 33.2717 185.014 33.2717C186.572 33.2717 187.784 33.8252 188.65 34.9322C189.55 35.9983 190 37.3716 190 39.0528C190 40.7339 189.55 42.1278 188.65 43.2348C187.784 44.3009 186.572 44.8338 185.014 44.8338C183.456 44.8338 182.227 44.3009 181.326 43.2348C180.461 42.1278 180.028 40.7339 180.028 39.0528Z" fill="white"/>
</svg>
